<svg xmlns="http://www.w3.org/2000/svg" width="26" height="25" viewBox="0 0 26 25">
  <g fill="#3b8d99" transform="translate(1 1)">
    <path d="M9.5,-1 C3.70101013,-1 -1,3.70101013 -1,9.5 C-1,15.2989899 3.70101013,20 9.5,20 C15.2989899,20 20,15.2989899 20,9.5 C20,3.70101013 15.2989899,-1 9.5,-1 Z M9.5,1 C14.1944204,1 18,4.80557963 18,9.5 C18,14.1944204 14.1944204,18 9.5,18 C4.80557963,18 1,14.1944204 1,9.5 C1,4.80557963 4.80557963,1 9.5,1 Z"/>
    <path d="M20.6526628,13.9526676 C21.1654979,13.9518135 21.5888127,14.337148 21.6474075,14.8343896 L21.6543311,14.9509993 L21.6697064,24.1669208 C21.6706264,24.7192048 21.2236587,25.1676664 20.6713747,25.1685892 C20.1585396,25.1694434 19.7352248,24.7841089 19.6766301,24.2868673 L19.6697078,24.1702575 L19.6543311,14.954336 C19.6534111,14.402052 20.1003788,13.9535904 20.6526628,13.9526676 Z" transform="rotate(-46 20.662 19.56)"/>
  </g>
</svg>
